#!OML:ASF I:\Actors\actors\Patient Classification 1\Patient 1\Session 1\Subject1.ASF
:FULLY-SPECIFIED
:DEGREES
1145
root 1.05828 17.4788 9.14642 7.40851 -1.13841 -6.82022
lowerback -0.481995 0.604612 8.61103
upperback -5.64594 1.08519 1.00615
thorax -5.51228 0.153248 -3.81053
lowerneck -12.8582 -0.232024 -1.01786
upperneck 26.942 -2.12171 7.17781
head 10.8936 -0.211743 2.49685
rclavicle -6.17475e-015 -1.68967e-015
rhumerus -73.1427 26.2195 -90.0595
rradius 122.293
rwrist -15.5864
rhand 70.4983 -65.378
rfingers 7.12502
rthumb 73.4365 -355.757
lclavicle -6.17475e-015 -1.68967e-015
lhumerus -31.3948 39.9784 71.8412
lradius 111.044
lwrist 53.128
lhand -37.1764 5.09308
lfingers 7.12502
lthumb -10.2448 34.8236
rfemur -3.65196 24.125 22.1914
rtibia 5.62514
rfoot -14.3852 -26.426
rtoes 3.44353
lfemur 6.66265 -41.2297 -16.9903
ltibia -5.10539
lfoot -18.2364 49.9012
ltoes 11.5984
1146
root 1.05523 17.479 9.14854 7.46841 -1.17105 -6.80897
lowerback -0.502976 0.570265 8.53281
upperback -5.68359 1.03762 1.01808
thorax -5.54681 0.131193 -3.75239
lowerneck -12.903 -0.24635 -1.0745
upperneck 26.8627 -2.12777 7.19025
head 10.8734 -0.219814 2.50851
rclavicle 7.31776e-015 -6.75868e-015
rhumerus -72.4281 25.6618 -88.8502
rradius 122.519
rwrist -16.0299
rhand 70.5496 -65.0262
rfingers 7.12502
rthumb 73.4151 -355.249
lclavicle 7.31776e-015 -6.75868e-015
lhumerus -32.19 39.3353 71.1243
lradius 110.47
lwrist 48.6789
lhand -37.8877 3.39065
lfingers 7.12502
lthumb -10.931 33.0861
rfemur -3.72605 24.1603 22.1645
rtibia 5.65619
rfoot -14.4123 -26.4122
rtoes 3.40384
lfemur 6.65467 -41.4442 -17.0183
ltibia -5.0846
lfoot -18.4916 50.1128
ltoes 11.855
1147
root 1.05403 17.4778 9.14854 7.59053 -1.25042 -6.85745
lowerback -0.527453 0.555979 8.55055
upperback -5.73548 1.01987 1.03085
thorax -5.59095 0.118534 -3.74796
lowerneck -12.9889 -0.247253 -1.04285
upperneck 26.7478 -2.10954 7.11344
head 10.8454 -0.218312 2.47475
rclavicle -2.07481e-015 -2.18663e-014
rhumerus -71.5052 24.8259 -87.3789
rradius 122.775
rwrist -16.6891
rhand 70.5878 -63.9249
rfingers 7.12502
rthumb 73.399 -354.031
lclavicle -2.07481e-015 -2.18663e-014
lhumerus -33.1764 38.4955 70.3361
lradius 110.007
lwrist 43.2505
lhand -38.8173 1.38464
lfingers 7.12502
lthumb -11.8275 31.0306
rfemur -3.92046 24.1445 22.1506
rtibia 5.70973
rfoot -14.3721 -26.3283
rtoes 3.32654
lfemur 6.53645 -41.5735 -16.9068
ltibia -5.0562
lfoot -18.6834 50.2981
ltoes 11.986
1148
root 1.05455 17.4728 9.14566 7.82664 -1.48612 -6.95955
lowerback -0.573249 0.594675 8.63089
upperback -5.81899 1.07404 1.04359
thorax -5.64762 0.137002 -3.78099
lowerneck -13.0097 -0.254456 -0.993209
upperneck 26.4488 -2.09632 7.05052
head 10.7362 -0.220293 2.43722
rclavicle 1.12065e-014 1.0138e-014
rhumerus -70.3709 23.6771 -85.6418
rradius 123.1
rwrist -17.9091
rhand 70.257 -62.7212
rfingers 7.12502
rthumb 73.5356 -353.843
lclavicle 1.12065e-014 1.0138e-014
lhumerus -34.374 37.4985 69.4457
lradius 109.612
lwrist 36.9323
lhand -40.0875 -1.02737
lfingers 7.12502
lthumb -13.0521 28.5443
rfemur -4.3435 24.0679 22.0837
rtibia 5.82112
rfoot -14.2527 -26.0347
rtoes 3.23807
lfemur 6.33803 -41.8022 -16.7111
ltibia -5.03618
lfoot -19.2859 50.6588
ltoes 12.6318
1149
root 1.05485 17.4631 9.14085 8.27835 -1.97946 -7.11519
lowerback -0.711917 0.71406 8.69741
upperback -6.00437 1.23322 1.09461
thorax -5.74726 0.204479 -3.76893
lowerneck -13.0733 -0.264323 -1.17024
upperneck 26.3406 -2.11791 7.25401
head 10.7132 -0.225112 2.53655
rclavicle -1.10325e-014 -1.27222e-014
rhumerus -69.2306 22.2815 -83.6831
rradius 123.53
rwrist -19.4307
rhand 69.4948 -61.1346
rfingers 7.12502
rthumb 73.8295 -354.659
lclavicle -1.10325e-014 -1.27222e-014
lhumerus -35.8684 36.4643 68.4019
lradius 109.256
lwrist 30.3064
lhand -41.408 -3.86966
lfingers 7.12502
lthumb -14.3248 25.6162
rfemur -5.15099 23.8885 21.9216
rtibia 6.08569
rfoot -14.0013 -25.4074
rtoes 2.69134
lfemur 5.97498 -42.1693 -16.3834
ltibia -5.02504
lfoot -20.3966 51.3289
ltoes 13.6811
1150
root 1.05201 17.464 9.14557 8.37142 -2.14124 -7.14876
lowerback -0.641649 0.679347 8.61989
upperback -6.10001 1.20055 1.1505
thorax -5.89585 0.184836 -3.66714
lowerneck -13.0004 -0.275682 -1.32848
upperneck 26.1095 -2.10744 7.35282
head 10.6143 -0.230555 2.59446
rclavicle -2.30217e-014 1.02374e-014
rhumerus -68.1568 20.6354 -81.5638
rradius 124.056
rwrist -20.7366
rhand 68.5046 -58.2853
rfingers 7.12502
rthumb 74.1659 -355.057
lclavicle -2.30217e-014 1.02374e-014
lhumerus -37.5411 35.4381 67.2699
lradius 108.922
lwrist 24.1836
lhand -42.544 -7.08748
lfingers 7.12502
lthumb -15.4192 22.3175
rfemur -5.23979 23.8593 21.9253
rtibia 6.06417
rfoot -13.8881 -25.2364
rtoes 2.33599
lfemur 6.04103 -42.3979 -16.415
ltibia -5.06573
lfoot -20.7259 51.682
ltoes 13.8003
1151
root 1.05036 17.4659 9.14944 8.46538 -2.26334 -7.1489
lowerback -0.630483 0.643515 8.53052
upperback -6.13971 1.15505 1.18242
thorax -5.95128 0.164338 -3.58229
lowerneck -12.9041 -0.308183 -1.3471
upperneck 25.7158 -2.10908 7.29979
head 10.4495 -0.248854 2.56731
rclavicle 2.88238e-015 -4.55217e-014
rhumerus -66.9778 18.6587 -79.2773
rradius 124.584
rwrist -21.7901
rhand 67.2761 -54.6826
rfingers 7.12502
rthumb 74.5073 -355.665
lclavicle 2.88238e-015 -4.55217e-014
lhumerus -39.1519 34.4301 66.1958
lradius 108.634
lwrist 19.2514
lhand -43.3866 -10.2765
lfingers 7.12502
lthumb -16.2306 19.0641
rfemur -5.34148 23.7997 21.8744
rtibia 6.02702
rfoot -13.8204 -25.0527
rtoes 2.30302
lfemur 6.06435 -42.6493 -16.4694
ltibia -5.06737
lfoot -20.9698 52.033
ltoes 13.876
1152
root 1.04744 17.4681 9.15329 8.55098 -2.37369 -7.13332
lowerback -0.628704 0.618616 8.42235
upperback -6.15987 1.1205 1.19434
thorax -5.97832 0.151436 -3.50822
lowerneck -12.7924 -0.356734 -1.36271
upperneck 25.2583 -2.1421 7.29122
head 10.2621 -0.277475 2.55053
rclavicle 1.42876e-015 1.47101e-014
rhumerus -65.7996 16.417 -76.9688
rradius 125.046
rwrist -22.7004
rhand 65.6874 -51.1321
rfingers 7.12502
rthumb 74.8156 -357.799
lclavicle 1.42876e-015 1.47101e-014
lhumerus -40.7157 33.5902 65.2014
lradius 108.525
lwrist 15.7567
lhand -43.3173 -12.8916
lfingers 7.12502
lthumb -16.1639 16.4545
rfemur -5.4419 23.7511 21.8047
rtibia 5.98003
rfoot -13.7651 -24.8955
rtoes 2.45949
lfemur 6.08534 -42.9275 -16.5321
ltibia -5.06083
lfoot -21.2338 52.3888
ltoes 14.0187
1153
root 1.04256 17.4681 9.15931 8.64545 -2.51619 -7.11229
lowerback -0.60702 0.616486 8.28581
upperback -6.21671 1.11927 1.19488
thorax -6.05188 0.153442 -3.43204
lowerneck -12.6434 -0.422747 -1.44068
upperneck 24.8569 -2.22125 7.40709
head 10.0937 -0.318859 2.58489
rclavicle -1.43995e-014 1.63003e-014
rhumerus -64.7835 14.0714 -74.7564
rradius 125.42
rwrist -23.4993
rhand 63.5869 -47.5647
rfingers 7.12502
rthumb 74.979 -361.999
lclavicle -1.43995e-014 1.63003e-014
lhumerus -42.2576 32.9159 64.2875
lradius 108.522
lwrist 13.6872
lhand -42.5972 -14.9421
lfingers 7.12502
lthumb -15.4705 14.4589
rfemur -5.54897 23.7585 21.7391
rtibia 5.9585
rfoot -13.7 -24.7797
rtoes 2.38297
lfemur 6.14819 -43.2157 -16.6167
ltibia -5.09434
lfoot -21.6637 52.7664
ltoes 14.3766
1154
root 1.0368 17.4676 9.16532 8.72929 -2.65026 -7.10443
lowerback -0.605301 0.60011 8.109
upperback -6.25377 1.0959 1.22473
thorax -6.09572 0.149327 -3.30139
lowerneck -12.7484 -0.5333 -1.72609
upperneck 24.7423 -2.37434 7.67237
head 10.0868 -0.386894 2.70751
rclavicle -2.55935e-014 2.56432e-014
rhumerus -63.8759 11.7392 -72.7001
rradius 125.651
rwrist -24.1195
rhand 60.7474 -44.0618
rfingers 7.12502
rthumb 74.7466 -368.974
lclavicle -2.55935e-014 2.56432e-014
lhumerus -43.8759 31.8817 63.3943
lradius 108.494
lwrist 13.3556
lhand -41.9073 -16.5898
lfingers 7.12502
lthumb -14.8058 12.8613
rfemur -5.63363 23.8697 21.7097
rtibia 5.96454
rfoot -13.721 -24.764
rtoes 2.30547
lfemur 6.21669 -43.4509 -16.6731
ltibia -5.13769
lfoot -22.1933 53.0516
ltoes 14.8565
1155
root 1.03167 17.4677 9.16875 8.7727 -2.73101 -7.12625
lowerback -0.561407 0.577743 7.96571
upperback -6.26797 1.06953 1.27564
thorax -6.13993 0.14333 -3.16769
lowerneck -12.7994 -0.608996 -1.79344
upperneck 24.5442 -2.4459 7.6447
head 10.0295 -0.432437 2.69571
rclavicle -1.21756e-015 -6.36111e-015
rhumerus -63.0889 9.37971 -70.8163
rradius 125.705
rwrist -24.5874
rhand 57.2712 -41.0433
rfingers 7.12502
rthumb 73.7912 -377.852
lclavicle -1.21756e-015 -6.36111e-015
lhumerus -45.6064 30.3112 62.5493
lradius 108.466
lwrist 14.7035
lhand -40.747 -17.7519
lfingers 7.12502
lthumb -13.6878 11.778
rfemur -5.6707 23.9723 21.7333
rtibia 5.96251
rfoot -13.7649 -24.7935
rtoes 2.31845
lfemur 6.25434 -43.6016 -16.6644
ltibia -5.15319
lfoot -22.5545 53.211
ltoes 15.1571
1156
root 1.02834 17.4671 9.17355 8.80889 -2.77011 -7.17354
lowerback -0.521605 0.583773 7.90187
upperback -6.28719 1.08298 1.31839
thorax -6.18264 0.152648 -3.08843
lowerneck -12.714 -0.712633 -1.8006
upperneck 24.2111 -2.53989 7.53475
head 9.89721 -0.497111 2.63803
rclavicle 1.81391e-014 -4.04527e-014
rhumerus -62.5054 7.00527 -69.1053
rradius 125.564
rwrist -24.9204
rhand 53.53 -38.308
rfingers 7.12502
rthumb 72.0709 -385.97
lclavicle 1.81391e-014 -4.04527e-014
lhumerus -47.199 28.814 61.9357
lradius 108.403
lwrist 16.6947
lhand -39.0296 -18.0373
lfingers 7.12502
lthumb -12.0322 11.5968
rfemur -5.67306 23.9743 21.7889
rtibia 5.90939
rfoot -13.7092 -24.7691
rtoes 2.36382
lfemur 6.29628 -43.7801 -16.6492
ltibia -5.14155
lfoot -22.9221 53.3496
ltoes 15.4865
1157
root 1.02622 17.4668 9.18127 8.83744 -2.78842 -7.19691
lowerback -0.521776 0.604622 7.83482
upperback -6.31015 1.11133 1.34049
thorax -6.20436 0.169638 -3.02924
lowerneck -12.4695 -0.829071 -1.88913
upperneck 23.72 -2.66279 7.58537
head 9.6837 -0.570844 2.64433
rclavicle -2.37672e-014 4.22417e-014
rhumerus -62.1261 4.75345 -67.6605
rradius 125.18
rwrist -24.9316
rhand 49.5291 -35.5792
rfingers 7.12502
rthumb 69.6404 -392.428
lclavicle -2.37672e-014 4.22417e-014
lhumerus -48.6155 27.6256 61.517
lradius 108.146
lwrist 18.3407
lhand -37.0581 -18.0907
lfingers 7.12502
lthumb -10.1307 11.6454
rfemur -5.63639 23.9143 21.8261
rtibia 5.82703
rfoot -13.6208 -24.7016
rtoes 2.37279
lfemur 6.34249 -43.879 -16.6744
ltibia -5.11796
lfoot -23.1466 53.4222
ltoes 15.6751
1158
root 1.02337 17.4679 9.18825 8.82435 -2.77885 -7.18852
lowerback -0.500558 0.620897 7.73221
upperback -6.32632 1.13321 1.34136
thorax -6.2315 0.1847 -2.97258
lowerneck -12.2317 -0.959781 -2.13291
upperneck 23.2942 -2.84045 7.89866
head 9.50534 -0.654179 2.76512
rclavicle 1.19022e-014 -5.96354e-015
rhumerus -61.8741 2.66739 -66.4855
rradius 124.475
rwrist -24.5517
rhand 45.194 -32.3972
rfingers 7.12502
rthumb 66.5345 -396.793
lclavicle 1.19022e-014 -5.96354e-015
lhumerus -49.9455 26.6198 61.1544
lradius 107.629
lwrist 19.2884
lhand -34.6996 -18.4757
lfingers 7.12502
lthumb -7.85479 11.3584
rfemur -5.56308 23.8553 21.8471
rtibia 5.77573
rfoot -13.5965 -24.6422
rtoes 2.32323
lfemur 6.35582 -43.8151 -16.7013
ltibia -5.0676
lfoot -23.036 53.3893
ltoes 15.5458
